<?xml version="1.0" encoding="UTF-8" standalone="no"?>
<svg width="96px" height="96px" viewBox="0 0 96 96" version="1.1" xmlns="http://www.w3.org/2000/svg" xmlns:xlink="http://www.w3.org/1999/xlink">
    <!-- Generator: Sketch 3.8.3 (29802) - http://www.bohemiancoding.com/sketch -->
    <title>Cheaper</title>
    <desc>Created with Sketch.</desc>
    <defs></defs>
    <g id="Page-1" stroke="none" stroke-width="1" fill="none" fill-rule="evenodd">
        <g id="Cheaper">
            <g id="ic_cheap">
                <g>
                    <rect id="bounds" x="0" y="0" width="96" height="96"></rect>
                    <g id="pig" transform="translate(48.000000, 48.500000) scale(-1, 1) translate(-48.000000, -48.500000) translate(8.000000, 14.000000)">
                        <g transform="translate(0.000000, 6.000000)">
                            <path d="M72.4411139,20.8735777 C74.4153924,22.8460469 74.4153924,26.0552551 72.4411139,28.0277243 C71.4023291,29.0653548 70.0208608,29.5564487 68.6572152,29.5020176 C67.3899747,19.9759707 60.2468861,11.999085 50.4443544,8.35887977 C50.1944304,9.77611144 49.6992405,11.1077507 49.0031392,12.3096862 L38.4810127,12.3096862 L38.4810127,58.8492757 C41.2868861,58.8492757 44.003038,58.5184399 46.5822785,57.9018915 L46.5822785,62.8961965 L56.7088608,62.8961965 L56.7088608,53.5894927 C63.2101266,49.3608651 67.6866835,42.9264633 68.6598481,35.569566 C68.7268861,35.5707801 68.7937215,35.5742199 68.8607595,35.5742199 C71.7128101,35.5740176 74.5660759,34.4892405 76.7374177,32.3198886 C81.0807089,27.9809824 81.0805063,20.9203196 76.7374177,16.5812111 L72.4411139,20.8735777 Z" id="XMLID_36_" fill="#37B5E9"></path>
                            <path d="M38.4810127,12.3096862 L27.9586835,12.3096862 C26.9241519,10.5235777 26.3291139,8.45155425 26.3291139,6.23930499 C26.3291139,5.33502053 26.4309873,4.45542229 26.6187342,3.60739003 C21.9665823,0.170947214 16.2025316,0.168923754 16.2025316,0.168923754 L16.2025316,14.6629707 C13.9355949,16.7795103 12.0660253,19.2191965 10.6965063,21.8938065 L0,26.4739091 L0,38.6146716 L10.6965063,43.1947742 C12.8139747,47.3299179 16.1251646,50.904563 20.2531646,53.5894927 L20.2531646,62.8961965 L24.3037975,62.8961965 L30.3797468,62.8961965 L30.3797468,57.9018915 C32.9589873,58.5184399 35.6751392,58.8492757 38.4810127,58.8492757 L38.4810127,12.3096862 Z M21.2658228,28.4973695 C22.9436499,28.4973695 24.3037975,27.1384684 24.3037975,25.4621789 C24.3037975,23.7858894 22.9436499,22.4269883 21.2658228,22.4269883 C19.5879957,22.4269883 18.2278481,23.7858894 18.2278481,25.4621789 C18.2278481,27.1384684 19.5879957,28.4973695 21.2658228,28.4973695 Z" id="Combined-Shape" fill="#5FC3ED"></path>
                        </g>
                        <g id="coin" transform="translate(26.000000, 0.000000)">
                            <path d="M12.4810127,18.3096862 L23.0033418,18.3096862 C23.6996456,17.1077507 24.1946329,15.7761114 24.444557,14.3588798 C24.5660759,13.6704985 24.6329114,12.9628944 24.6329114,12.239305 C24.6329114,5.53396188 19.1923038,0.098542522 12.4810127,0.098542522 L12.4810127,18.3096862 L12.4810127,18.3096862 Z" id="XMLID_1382_" fill="#F6A43B"></path>
                            <path d="M1.95868354,18.3096862 L12.4810127,18.3096862 L12.4810127,0.098542522 C6.67463291,0.098542522 1.82237975,4.1681261 0.618734177,9.60739003 C0.430987342,10.4552199 0.329113924,11.3350205 0.329113924,12.239305 C0.329113924,14.4515543 0.924151899,16.5235777 1.95868354,18.3096862 L1.95868354,18.3096862 Z" id="XMLID_32_" fill="#F8BF76"></path>
                        </g>
                    </g>
                </g>
            </g>
        </g>
    </g>
</svg>