<?xml version="1.0" encoding="UTF-8" standalone="no"?>
<svg width="96px" height="96px" viewBox="0 0 96 96" version="1.1" xmlns="http://www.w3.org/2000/svg" xmlns:xlink="http://www.w3.org/1999/xlink">
    <!-- Generator: Sketch 3.8.3 (29802) - http://www.bohemiancoding.com/sketch -->
    <title>Faster</title>
    <desc>Created with Sketch.</desc>
    <defs></defs>
    <g id="Page-1" stroke="none" stroke-width="1" fill="none" fill-rule="evenodd">
        <g id="Faster">
            <g id="ic_fast_lead_time">
                <g>
                    <g id="wind" transform="translate(8.000000, 17.000000)">
                        <path d="M55.0988283,10.2293525 C55.0988283,4.61908094 50.541899,0.0547154047 44.9406061,0.0547154047 L41.7082828,0.0547154047 L41.7082828,6.52991123 L44.9406061,6.52991123 C46.9772929,6.52991123 48.6341818,8.18950392 48.6341818,10.2293525 C48.6341818,12.269201 46.9772929,13.9287937 44.9406061,13.9287937 L0,13.9287937 L0,20.4039896 L44.9406061,20.4039896 C50.541899,20.4039896 55.0988283,15.839624 55.0988283,10.2293525 L55.0988283,10.2293525 Z" id="Shape" fill="#37B5E9"></path>
                        <path d="M57.3913535,41.5960104 L0,41.5960104 L0,48.0712063 L57.3913535,48.0712063 C59.4278788,48.0712063 61.0847677,49.730799 61.0847677,51.7706475 C61.0847677,53.8104961 59.4278788,55.4700888 57.3913535,55.4700888 L54.1590303,55.4700888 L54.1590303,61.9452846 L57.3913535,61.9452846 C62.9924848,61.9452846 67.5494141,57.3809191 67.5494141,51.7706475 C67.5494141,46.160376 62.9926465,41.5960104 57.3913535,41.5960104 L57.3913535,41.5960104 Z" id="Shape" fill="#87D2F1"></path>
                        <rect id="Rectangle-path" fill="#73CBEF" x="28.4586667" y="27.7624021" width="51.5413333" height="6.47519582"></rect>
                        <rect id="Rectangle-path" fill="#5FC3ED" x="0" y="27.7624021" width="20.6939798" height="6.47519582"></rect>
                    </g>
                    <rect id="bounds" x="0" y="0" width="96" height="96"></rect>
                </g>
            </g>
        </g>
    </g>
</svg>