<svg width="96" height="96" viewBox="0 0 96 96" xmlns="http://www.w3.org/2000/svg"><title>Cheaper</title><g fill="none" fill-rule="evenodd"><path d="M0 0h96v96H0z"/><path d="M15.559 40.874a5.061 5.061 0 0 0 0 7.154 5.053 5.053 0 0 0 3.784 1.474c1.267-9.526 8.41-17.503 18.213-21.143.25 1.417.745 2.749 1.44 3.95H49.52v46.54c-2.806 0-5.522-.33-8.101-.947v4.994H31.29V73.59c-6.501-4.228-10.978-10.663-11.95-18.02-.068.002-.135.005-.202.005a11.112 11.112 0 0 1-7.876-3.254c-4.344-4.339-4.344-11.4 0-15.739l4.296 4.293z" fill="#37B5E9"/><path d="M49.519 32.31h10.522a12.072 12.072 0 0 0 1.63-6.07c0-.905-.102-1.785-.29-2.633 4.652-3.436 10.416-3.438 10.416-3.438v14.494c2.267 2.117 4.137 4.556 5.506 7.23L88 46.474v12.142l-10.697 4.58c-2.117 4.135-5.428 7.71-9.556 10.394v9.307H57.62v-4.994c-2.579.616-5.295.947-8.101.947V32.31zm17.215 16.187a3.037 3.037 0 0 1-3.038-3.035 3.037 3.037 0 0 1 3.038-3.035 3.037 3.037 0 0 1 3.038 3.035 3.037 3.037 0 0 1-3.038 3.035z" fill="#5FC3ED"/><g><path d="M49.519 32.31H38.997a12.18 12.18 0 0 1-1.63-6.07c0-6.706 5.44-12.141 12.152-12.141v18.21z" fill="#F6A43B"/><path d="M60.041 32.31H49.52V14.099c5.806 0 10.659 4.07 11.862 9.508.188.848.29 1.728.29 2.632 0 2.213-.595 4.285-1.63 6.07z" fill="#F8BF76"/></g></g></svg>