<svg width="96" height="96" viewBox="0 0 96 96" xmlns="http://www.w3.org/2000/svg"><title>Faster</title><g fill="none" fill-rule="evenodd"><path d="M63.099 27.23c0-5.61-4.557-10.175-10.158-10.175h-3.233v6.475h3.233a3.7 3.7 0 0 1 0 7.399H8v6.475h44.94c5.602 0 10.159-4.564 10.159-10.175z" fill="#37B5E9"/><path d="M65.391 58.596H8v6.475h57.391a3.7 3.7 0 0 1 0 7.4H62.16v6.474h3.232c5.601 0 10.158-4.564 10.158-10.174 0-5.61-4.556-10.175-10.158-10.175z" fill="#87D2F1"/><path fill="#73CBEF" d="M36.459 44.762H88v6.475H36.459z"/><path fill="#5FC3ED" d="M8 44.762h20.694v6.475H8z"/><path d="M0 0h96v96H0z"/></g></svg>