<svg xmlns="http://www.w3.org/2000/svg" viewBox="0 0 194.917 194.917"><path fill="#fdcc9b" d="M82.761 144.651h29.395v32.923H82.761z"/><path d="M82.762 148.529s12.364 7.874 29.394 6.051v-9.929H82.762v3.878z" fill="#fcbc85"/><ellipse cx="40.375" cy="93.602" rx="14.343" ry="16.364" fill="#fcbc85"/><ellipse cx="154.542" cy="93.602" rx="14.343" ry="16.364" fill="#fcbc85"/><path d="M154.484 62.346c0-24.104-17.637-41.741-57.025-41.741-39.39 0-57.026 17.637-57.026 41.741s-4.115 87.597 57.026 87.597c61.141 0 57.025-63.493 57.025-87.597z" fill="#fdcc9b"/><ellipse cx="69.683" cy="89.684" rx="6.173" ry="6.761" fill="#3b2519"/><circle cx="66.992" cy="86.698" r="1.846" fill="#fff"/><path d="M59.808 72.928c2.919 1.459 7.606-4.96 18.335.625 1.956 1.018 3.123-8.708-8.377-8.708-9.958 0-11.722 7.202-9.958 8.083z" fill="#bf904b"/><ellipse cx="125.997" cy="89.684" rx="6.173" ry="6.761" fill="#3b2519"/><circle cx="123.305" cy="86.698" r="1.846" fill="#fff"/><path d="M135.109 72.928c-2.919 1.459-7.607-4.96-18.335.625-1.956 1.018-3.123-8.708 8.377-8.708 9.958 0 11.722 7.202 9.958 8.083z" fill="#bf904b"/><path d="M97.459 113.464c-6.1 0-9.774-4.557-9.774-2.352 0 2.204 1.764 6.394 9.774 6.394s9.773-4.189 9.773-6.394-3.674 2.352-9.773 2.352zM97.459 133.734c-2.11 0-3.381-1.575-3.381-.813 0 .763.609 2.212 3.381 2.212 2.77 0 3.38-1.449 3.38-2.212 0-.762-1.271.813-3.38.813z" fill="#fcbc85"/><path d="M97.459 128.117c-9.669 0-15.493-3.936-15.493-2.939 0 .997 2.796 4.924 15.493 4.924 12.696 0 15.492-3.927 15.492-4.924 0-.997-5.824 2.939-15.492 2.939z" fill="#f7945e"/><path d="M97.459 157.88v37.037h71.427c0-14.991-37.623-37.037-71.427-37.037zM97.459 157.88v37.037H26.031c0-14.991 37.623-37.037 71.428-37.037z" fill="#7a707b"/><path d="M64.393 163.991l17.794 30.926h15.272v-4.461l-21.671-29.861a111.683 111.683 0 0 0-11.395 3.396zM130.524 163.991l-17.794 30.926H97.459v-4.461l21.67-29.861c3.889.933 7.706 2.082 11.395 3.396z" fill="#665d67"/><path d="M72.645 161.399c6.691 11.021 18.784 29.982 24.814 33.518V157.88c-8.246 0-16.716 1.318-24.814 3.519z" fill="#fff"/><path d="M122.272 161.399c-6.691 11.021-18.784 29.982-24.814 33.518V157.88c8.246 0 16.716 1.318 24.814 3.519z" fill="#fff"/><path d="M97.722 157.88c-7.191 0-14.552 1.005-21.689 2.72.048.063 7.916 10.214 21.689 10.214 12.754 0 21.232-8.693 22.462-10.031-7.378-1.831-15.012-2.903-22.462-2.903z" fill="#c7c5c4"/><path d="M82.761 159.162s4.299 5.89 14.697 5.89 14.697-5.891 14.697-5.891-15.248-5.552-29.394.001z" fill="#fdcc9b"/><path d="M97.459 0C12.948 0 27.177 96.444 41.721 96.444c3.709 0 1.168-48.532 7.972-47.649 6.803.883 18.812 3.841 47.767 3.841 28.953 0 40.963-2.958 47.766-3.841 6.803-.882 4.263 47.649 7.972 47.649C167.74 96.444 181.969 0 97.459 0z" fill="#bf904b"/></svg>